<svg xmlns="http://www.w3.org/2000/svg" xmlns:xlink="http://www.w3.org/1999/xlink" width="295.896" height="78.328" viewBox="0 0 295.896 78.328">
  <defs>
    <linearGradient id="linear-gradient" x1="-0.24" y1="-0.347" x2="1.082" y2="1" gradientUnits="objectBoundingBox">
      <stop offset="0" stop-color="#f8b13c"/>
      <stop offset="0.488" stop-color="#ff615b"/>
      <stop offset="1" stop-color="#fd26b9"/>
    </linearGradient>
  </defs>
  <g id="Group_128435" data-name="Group 128435" transform="translate(-30 -6622.84)">
    <path id="Path_137396" data-name="Path 137396" d="M22.759-20.327h7.4L19.727-56.16H10.952L.432-20.327h7.4l2.343-9.326h10.2ZM11.641-35.717,15.27-49.958h.046l3.629,14.241Zm48.282-9a7.158,7.158,0,0,0-6.845,4.272c-1.011-2.848-3.354-4.272-6.707-4.272-3.721,0-5.88,2.021-6.707,4.318L39.3-44.124H33.279v23.8h6.753V-35.074c0-2.664,1.24-4.41,3.721-4.41,2.3,0,3.124,1.332,3.124,4.5v14.655H53.63V-35.074c0-2.664,1.24-4.41,3.767-4.41,2.205,0,3.124,1.332,3.124,4.5v14.655h6.753V-36.544C67.274-42.011,64.609-44.721,59.924-44.721ZM78.989-19.73c3.675,0,5.88-1.746,6.937-3.675h.138l.919,3.078h4.87V-35.671c0-5.559-2.3-9.05-9.647-9.05-4.732,0-9.785,1.746-9.785,7.213v1.148h6.707v-1.057c0-1.7.735-2.8,2.986-2.8,2.848,0,3.17,2.021,3.17,4.18v1.884H80.688c-6.064,0-9.1,1.838-9.1,7.35C71.592-22.3,73.843-19.73,78.989-19.73Zm2.527-4.41c-2.3,0-2.94-1.24-2.94-3.124,0-2.435,1.057-3.032,3.17-3.032h3.537v2.481A3.5,3.5,0,0,1,81.515-24.14Zm15.8,3.813h6.753V-35.074c0-2.664,1.562-4.41,4.135-4.41,2.435,0,3.354,1.332,3.354,4.5v14.655h6.753V-36.544c0-5.467-2.756-8.177-7.534-8.177-3.767,0-6.156,1.838-7.075,4.318l-.368-3.721H97.318Zm36.522.6c7.993,0,11.669-5.237,11.669-12.45,0-7.4-3.537-12.541-11.255-12.541-8.085,0-11.623,5.191-11.623,12.771C122.631-24.967,125.617-19.73,133.84-19.73Zm.23-4.732c-3.216,0-4.456-2.481-4.456-7.718s1.332-7.626,4.5-7.626c2.894,0,4.41,2.3,4.41,7.626C138.526-26.9,137.01-24.462,134.07-24.462Zm15.849,4.135h6.753V-33.374c0-3.078,1.792-5.191,5.283-5.191a10.286,10.286,0,0,1,4.089.781v-6.432a8.508,8.508,0,0,0-3.17-.505,6.657,6.657,0,0,0-6.615,5.1l-.505-4.5h-5.834Zm25.175.6c3.675,0,5.88-1.746,6.937-3.675h.138l.919,3.078h4.87V-35.671c0-5.559-2.3-9.05-9.647-9.05-4.732,0-9.785,1.746-9.785,7.213v1.148h6.707v-1.057c0-1.7.735-2.8,2.986-2.8,2.848,0,3.17,2.021,3.17,4.18v1.884h-4.594c-6.064,0-9.1,1.838-9.1,7.35C167.7-22.3,169.949-19.73,175.094-19.73Zm2.527-4.41c-2.3,0-2.94-1.24-2.94-3.124,0-2.435,1.057-3.032,3.17-3.032h3.537v2.481A3.5,3.5,0,0,1,177.621-24.14Zm25.91,3.813h6.937V-32.869h3.675c8.315,0,12.174-3.951,12.174-11.9,0-7.718-4.135-11.393-12.312-11.393H203.53Zm6.937-18.054V-50.693h3.308c3.262,0,5.559,1.378,5.559,5.926,0,4.594-1.792,6.386-5.329,6.386ZM235.275-19.73c3.675,0,5.88-1.746,6.937-3.675h.138l.919,3.078h4.87V-35.671c0-5.559-2.3-9.05-9.647-9.05-4.732,0-9.785,1.746-9.785,7.213v1.148h6.707v-1.057c0-1.7.735-2.8,2.986-2.8,2.848,0,3.17,2.021,3.17,4.18v1.884h-4.594c-6.064,0-9.1,1.838-9.1,7.35C227.878-22.3,230.129-19.73,235.275-19.73Zm2.527-4.41c-2.3,0-2.94-1.24-2.94-3.124,0-2.435,1.057-3.032,3.17-3.032h3.537v2.481A3.5,3.5,0,0,1,237.8-24.14Zm15.8,3.813h6.753V-33.374c0-3.078,1.792-5.191,5.283-5.191a10.286,10.286,0,0,1,4.089.781v-6.432a8.508,8.508,0,0,0-3.17-.505,6.657,6.657,0,0,0-6.615,5.1l-.505-4.5H253.6Zm19.478,0h6.661v-5.88l3.813-3.9,5.1,9.785h7.672v-.046l-8.039-14.838,7.993-8.866v-.046h-7.81l-8.729,10.153V-56.16h-6.661Z" transform="translate(29.568 6679)" fill="url(#linear-gradient)"/>
    <path id="Path_137397" data-name="Path 137397" d="M10.936-20.428h6.917V-50.342H28.069V-56.16H.72v5.818H10.936Zm26.57.6c7.971,0,11.636-5.222,11.636-12.415,0-7.376-3.527-12.506-11.224-12.506-8.063,0-11.59,5.177-11.59,12.735C26.328-25.054,29.306-19.832,37.506-19.832Zm.229-4.719c-3.207,0-4.444-2.474-4.444-7.7s1.329-7.6,4.489-7.6c2.886,0,4.4,2.291,4.4,7.6C42.179-26.979,40.667-24.551,37.735-24.551Zm19.378,4.123h7.6l4.4-16.034H69.3L73.6-20.428h7.788L87.3-44.112l-.183-.046H81.164L77.636-26.933h-.183L72.735-44.158h-6.78L61.236-26.933h-.183L57.434-44.158H50.425v.046Zm33.35,0H97.2V-35.133c0-2.657,1.558-4.4,4.123-4.4,2.428,0,3.344,1.329,3.344,4.489v14.614H111.4V-36.6c0-5.451-2.749-8.154-7.513-8.154-3.756,0-6.139,1.832-7.055,4.306l-.366-3.711h-6Z" transform="translate(29.28 6721)" fill="url(#linear-gradient)"/>
  </g>
</svg>
