<svg xmlns="http://www.w3.org/2000/svg" xmlns:xlink="http://www.w3.org/1999/xlink" width="679.248" height="57.096" viewBox="0 0 679.248 57.096">
  <defs>
    <linearGradient id="linear-gradient" x1="-0.24" y1="-0.347" x2="1.082" y2="1" gradientUnits="objectBoundingBox">
      <stop offset="0" stop-color="#f8b13c"/>
      <stop offset="0.488" stop-color="#ff615b"/>
      <stop offset="1" stop-color="#fd26b9"/>
    </linearGradient>
  </defs>
  <path id="Path_136756" data-name="Path 136756" d="M34.992,0h14.4L33.48-56.16H16.344L.36,0H14.616L17.64-13.032h14.4ZM20.3-24.7l4.464-19.8h.144l4.464,19.8ZM97.92-38.376a11.052,11.052,0,0,0-10.656,6.768c-1.656-4.536-5.4-6.768-10.872-6.768-5.9,0-9.288,3.312-10.512,6.984l-.648-6.048H53.64V0H66.6V-22.248c0-3.888,1.152-6.264,4.536-6.264,3.168,0,4.032,2.088,4.032,6.48V0h12.96V-22.248c0-3.888,1.224-6.264,4.536-6.264,3.24,0,4.1,2.088,4.1,6.48V0h12.96V-25.56C109.728-34.056,105.552-38.376,97.92-38.376ZM127.368.936c5.976,0,9.36-2.736,11.016-5.832h.216L140.256,0h9.432V-23.832c0-8.64-3.456-14.544-16.2-14.544-7.992,0-16.56,2.88-16.56,11.664v1.728h12.888v-1.584c0-2.088.864-3.528,3.528-3.528,3.672,0,3.744,2.808,3.744,5.472v2.808h-6.7c-9.936,0-14.9,2.808-14.9,11.664C115.488-3.1,119.088.936,127.368.936ZM132.552-7.2c-2.952,0-3.744-1.44-3.744-3.96,0-3.024,1.224-3.888,4.248-3.888h4.032v3.456A4.229,4.229,0,0,1,132.552-7.2Zm24.7,7.2h12.96V-22.248c0-3.888,1.584-6.264,5.112-6.264,3.312,0,4.176,2.088,4.176,6.48V0h12.96V-25.56c0-8.5-4.32-12.816-11.952-12.816-5.9,0-9.648,2.952-11.016,6.984l-.648-6.048H157.248Zm59.688.936c13.392,0,19.44-8.28,19.44-19.584,0-11.592-5.832-19.728-18.648-19.728-13.392,0-19.368,8.28-19.368,20.232C198.36-7.272,203.472.936,216.936.936Zm.5-8.784c-4.248,0-5.688-3.168-5.688-10.728,0-7.416,1.656-10.656,5.688-10.656,3.744,0,5.616,3.024,5.616,10.656C223.056-11.016,221.184-7.848,217.44-7.848ZM242.5,0h12.96V-19.44c0-4.464,2.376-7.272,7.632-7.272a17.877,17.877,0,0,1,6.984,1.224V-37.512a14.492,14.492,0,0,0-5.184-.864c-6.12,0-9.216,4.248-10.224,8.352l-.936-7.416H242.5Zm41.4.936c5.976,0,9.36-2.736,11.016-5.832h.216L296.784,0h9.432V-23.832c0-8.64-3.456-14.544-16.2-14.544-7.992,0-16.56,2.88-16.56,11.664v1.728h12.888v-1.584c0-2.088.864-3.528,3.528-3.528,3.672,0,3.744,2.808,3.744,5.472v2.808h-6.7c-9.936,0-14.9,2.808-14.9,11.664C272.016-3.1,275.616.936,283.9.936ZM289.08-7.2c-2.952,0-3.744-1.44-3.744-3.96,0-3.024,1.224-3.888,4.248-3.888h4.032v3.456A4.229,4.229,0,0,1,289.08-7.2ZM329.472,0h13.32V-18.576h4.392c12.96,0,19.8-5.688,19.8-19.224,0-12.1-6.552-18.36-19.728-18.36H329.472Zm13.32-29.016V-45.792h3.888c3.6,0,6.984,1.728,6.984,8.136,0,6.624-2.808,8.64-6.768,8.64ZM380.448.936c5.976,0,9.36-2.736,11.016-5.832h.216L393.336,0h9.432V-23.832c0-8.64-3.456-14.544-16.2-14.544-7.992,0-16.56,2.88-16.56,11.664v1.728H382.9v-1.584c0-2.088.864-3.528,3.528-3.528,3.672,0,3.744,2.808,3.744,5.472v2.808h-6.7c-9.936,0-14.9,2.808-14.9,11.664C368.568-3.1,372.168.936,380.448.936ZM385.632-7.2c-2.952,0-3.744-1.44-3.744-3.96,0-3.024,1.224-3.888,4.248-3.888h4.032v3.456A4.229,4.229,0,0,1,385.632-7.2Zm24.7,7.2h12.96V-19.44c0-4.464,2.376-7.272,7.632-7.272a17.877,17.877,0,0,1,6.984,1.224V-37.512a14.492,14.492,0,0,0-5.184-.864c-6.12,0-9.216,4.248-10.224,8.352l-.936-7.416H410.328Zm32.184,0h12.816V-8.64l5.112-5.04L467.208,0h14.76V-.072L469.656-23.4l12.456-13.968v-.072H467.136L455.328-23.328V-56.16H442.512ZM513.72,0h13.32V-45h15.768V-56.16H497.88V-45h15.84Zm44.568.936c13.392,0,19.44-8.28,19.44-19.584,0-11.592-5.832-19.728-18.648-19.728-13.392,0-19.368,8.28-19.368,20.232C539.712-7.272,544.824.936,558.288.936Zm.5-8.784c-4.248,0-5.688-3.168-5.688-10.728,0-7.416,1.656-10.656,5.688-10.656,3.744,0,5.616,3.024,5.616,10.656C564.408-11.016,562.536-7.848,558.792-7.848ZM589.536-.072h14.832l5.832-23.04h.36l5.688,23.04h15.264l8.712-37.3-.36-.072H628.488v.072l-4.32,25.488h-.36l-6.624-25.56h-13.1L597.6-11.88h-.36l-4.608-25.56H579.1v.072ZM644.4,0h12.96V-22.248c0-3.888,1.584-6.264,5.112-6.264,3.312,0,4.176,2.088,4.176,6.48V0h12.96V-25.56c0-8.5-4.32-12.816-11.952-12.816-5.9,0-9.648,2.952-11.016,6.984l-.648-6.048H644.4Z" transform="translate(-0.36 56.16)" fill="url(#linear-gradient)"/>
</svg>
