<svg xmlns="http://www.w3.org/2000/svg" xmlns:xlink="http://www.w3.org/1999/xlink" width="238.176" height="57.096" viewBox="0 0 238.176 57.096">
  <defs>
    <linearGradient id="linear-gradient" x1="-0.24" y1="-0.347" x2="1.082" y2="1" gradientUnits="objectBoundingBox">
      <stop offset="0" stop-color="#f8b13c"/>
      <stop offset="0.488" stop-color="#ff615b"/>
      <stop offset="1" stop-color="#fd26b9"/>
    </linearGradient>
  </defs>
  <path id="Path_136781" data-name="Path 136781" d="M35.424,0H47.016L30.672-56.16H16.92L.432,0H12.024L15.7-14.616H31.68ZM18-24.12l5.688-22.32h.072l5.688,22.32ZM51.912,0H62.5V-20.448c0-4.824,2.808-8.136,8.28-8.136a16.121,16.121,0,0,1,6.408,1.224V-37.44a13.334,13.334,0,0,0-4.968-.792c-6.12,0-9.216,4.1-10.368,7.992L61.056-37.3H51.912Zm51.264.936c9.144,0,14.832-7.056,14.832-19.8,0-12.312-4.392-19.368-14.04-19.368-5.112,0-8.856,2.232-10.872,5.472h-.072v-23.4H82.44V0h7.992L92.16-5.616h.216C94.032-1.44,98.064.936,103.176.936Zm-3.384-7.56c-4.536,0-7.344-3.672-7.344-11.952,0-8.352,2.736-12.312,7.632-12.312,4.752,0,6.984,3.312,6.984,12.168C107.064-9.936,104.328-6.624,99.792-6.624Zm34.56,7.56c5.76,0,9.216-2.736,10.872-5.76h.216L146.88,0h7.632V-24.048c0-8.712-3.6-14.184-15.12-14.184-7.416,0-15.336,2.736-15.336,11.3v1.8h10.512v-1.656c0-2.664,1.152-4.392,4.68-4.392,4.464,0,4.968,3.168,4.968,6.552v2.952h-7.2c-9.5,0-14.256,2.88-14.256,11.52C122.76-3.1,126.288.936,134.352.936Zm3.96-6.912c-3.6,0-4.608-1.944-4.608-4.9,0-3.816,1.656-4.752,4.968-4.752h5.544v3.888C144.216-8.568,142.2-5.976,138.312-5.976ZM163.08,0h10.584V-23.112c0-4.176,2.448-6.912,6.48-6.912,3.816,0,5.256,2.088,5.256,7.056V0h10.584V-25.416c0-8.568-4.32-12.816-11.808-12.816-5.9,0-9.648,2.88-11.088,6.768l-.576-5.832H163.08Zm57.24.936c12.528,0,18.288-8.208,18.288-19.512,0-11.592-5.544-19.656-17.64-19.656-12.672,0-18.216,8.136-18.216,20.016C202.752-7.272,207.432.936,220.32.936Zm.36-7.416c-5.04,0-6.984-3.888-6.984-12.1s2.088-11.952,7.056-11.952c4.536,0,6.912,3.6,6.912,11.952C227.664-10.3,225.288-6.48,220.68-6.48Z" transform="translate(-0.432 56.16)" fill="url(#linear-gradient)"/>
</svg>
