<svg xmlns="http://www.w3.org/2000/svg" xmlns:xlink="http://www.w3.org/1999/xlink" width="464.04" height="58.032" viewBox="0 0 464.04 58.032">
  <defs>
    <linearGradient id="linear-gradient" x1="-0.24" y1="-0.347" x2="1.082" y2="1" gradientUnits="objectBoundingBox">
      <stop offset="0" stop-color="#f8b13c"/>
      <stop offset="0.488" stop-color="#ff615b"/>
      <stop offset="1" stop-color="#fd26b9"/>
    </linearGradient>
  </defs>
  <path id="Path_137219" data-name="Path 137219" d="M35.424,0H47.016L30.672-56.16H16.92L.432,0H12.024L15.7-14.616H31.68ZM18-24.12l5.688-22.32h.072l5.688,22.32ZM51.912,0H62.5V-20.448c0-4.824,2.808-8.136,8.28-8.136a16.121,16.121,0,0,1,6.408,1.224V-37.44a13.334,13.334,0,0,0-4.968-.792c-6.12,0-9.216,4.1-10.368,7.992L61.056-37.3H51.912Zm48.816-7.416c-4.176,0-5.472-1.872-5.472-6.7V-29.52h9.36V-37.3h-9.36V-50.112L84.672-45.72V-37.3H78.408v7.776h6.264v16.632C84.672-3.6,88.776.936,98.28.936a31.639,31.639,0,0,0,8.28-1.152v-7.92A29.86,29.86,0,0,1,100.728-7.416Zm48.6,8.352c14.976,0,23.616-9.216,23.616-29.376,0-19.728-9-28.656-23.112-28.656-14.472,0-23.976,9.144-23.976,29.16C125.856-7.992,134.064.936,149.328.936Zm.144-8.928c-7.416,0-12.168-5.4-12.168-20.016,0-14.256,4.68-20.088,12.312-20.088,7.2,0,11.952,5.616,11.952,20.16C161.568-13.32,156.888-7.992,149.472-7.992ZM199.08-48.744a23.786,23.786,0,0,1,5.328.72v-8.064a32.726,32.726,0,0,0-7.992-1.008c-9.072,0-13.68,4.968-13.68,14.04v5.76h-6.264v7.776h6.264V0H193.32V-29.52h9.36V-37.3h-9.36v-4.752C193.32-46.8,194.9-48.744,199.08-48.744ZM223.776,0h31.032V-9.144h-20.16V-56.16H223.776Zm37.512,0H272.16V-56.16H261.288Zm32.976,0h13.824l16.128-56.16H312.7L301.32-11.448h-.288L289.584-56.16H277.92Zm35.712,0h10.872V-56.16H329.976Zm21.672,0h10.08V-38.3h.144L383.184,0h10.3V-56.16H383.4v37.512h-.144L362.3-56.16H351.648Zm72.288.936c6.12,0,10.728-2.16,13.1-5.76L438.768,0h6.48V-29.88h-21.96v8.64H434.88v3.816c0,5.4-2.952,9.36-9.432,9.36-7.992,0-12.384-5.328-12.384-19.944,0-14.184,4.536-20.016,12.024-20.016,6.552,0,9.792,3.672,9.792,10.584v1.368h10.368v-1.584c0-13.392-7.992-19.44-20.016-19.44-14.04,0-23.616,8.928-23.616,29.088C401.616-8.136,409.968.936,423.936.936ZM453.96-19.728H463.1l1.368-36.432h-11.88ZM452.88,0h11.3V-11.664h-11.3Z" transform="translate(-0.432 57.096)" fill="url(#linear-gradient)"/>
</svg>
