<svg xmlns="http://www.w3.org/2000/svg" width="1366.882" height="327.656" viewBox="0 0 1366.882 327.656">
  <g id="Group_128388" data-name="Group 128388" transform="translate(0.42 -1896.86)">
    <path id="Path_136744" data-name="Path 136744" d="M1526,2154s120.79-187.12,436-190.285,449.252,99.951,572.437,133.96,299.368,28.609,346.3-151.794c.139-.317,11.235-48.91,11.235-48.91" transform="translate(-1526)" fill="none" stroke="#afafaf" stroke-width="1" stroke-dasharray="3"/>
    <path id="Path_136745" data-name="Path 136745" d="M1526,2094s120.79-181.12,436-184.285,449.252,153.951,572.437,187.96,299.368,28.609,346.3-151.794c.139-.317,11.235-48.91,11.235-48.91" transform="translate(-1526 60)" fill="none" stroke="#afafaf" stroke-width="1" stroke-dasharray="3"/>
    <path id="Path_136746" data-name="Path 136746" d="M1526,2044s120.79-174.12,436-177.285,449.252,196.951,572.437,230.96,299.368,28.609,346.3-151.794c.139-.317,11.235-48.91,11.235-48.91" transform="translate(-1526 110)" fill="none" stroke="#afafaf" stroke-width="1" stroke-dasharray="3"/>
  </g>
</svg>
