<svg xmlns="http://www.w3.org/2000/svg" xmlns:xlink="http://www.w3.org/1999/xlink" width="246.929" height="78.116" viewBox="0 0 246.929 78.116">
  <defs>
    <linearGradient id="linear-gradient" x1="-0.24" y1="-0.347" x2="1.082" y2="1" gradientUnits="objectBoundingBox">
      <stop offset="0" stop-color="#f8b13c"/>
      <stop offset="0.488" stop-color="#ff615b"/>
      <stop offset="1" stop-color="#fd26b9"/>
    </linearGradient>
  </defs>
  <g id="Group_128434" data-name="Group 128434" transform="translate(-30 -3447.84)">
    <path id="Path_137334" data-name="Path 137334" d="M4.824-26.519H22.456v-5.472h-10.6V-38.6H20.67v-5.89H11.854v-6.194H22.266V-56.16H4.824Zm26.3.494c3.154,0,4.94-1.444,5.814-3.078h.114l.874,2.584H42.9V-39.1c0-4.56-1.824-7.676-8.55-7.676-4.218,0-8.74,1.52-8.74,6.156v.912h6.8v-.836A1.633,1.633,0,0,1,34.275-42.4c1.938,0,1.976,1.482,1.976,2.888v1.482H32.717c-5.244,0-7.866,1.482-7.866,6.156C24.85-28.153,26.75-26.025,31.121-26.025Zm2.736-4.294c-1.558,0-1.976-.76-1.976-2.09,0-1.6.646-2.052,2.242-2.052h2.128v1.824A2.232,2.232,0,0,1,33.857-30.319Zm20.786,4.294c6.612,0,9.31-2.926,9.31-6.688,0-3.8-2.28-5.016-5.51-5.814l-3.116-.684c-1.748-.456-2.546-.8-2.546-2.014,0-.8.456-1.444,1.976-1.444,1.824,0,2.014,1.1,2.014,2.318v.342h6.8v-.456c0-2.622-1.33-6.308-8.512-6.308-7.258,0-9.044,3.572-9.044,6.536,0,3,1.254,4.75,5.13,5.662l3.306.722c1.672.38,2.28.76,2.28,1.824s-.608,1.558-1.976,1.558A1.873,1.873,0,0,1,52.629-32.6v-.646h-6.8v.684C45.827-29.369,46.777-26.025,54.643-26.025ZM67.031-49.358h6.726v-6.8H67.031Zm-.038,22.838h6.84V-46.28h-6.84ZM95.646-36.78c0-6.764-2.812-9.994-8.93-9.994-6.194,0-9.8,3.838-9.8,10.6,0,6.08,2.736,10.146,9.576,10.146,6.118,0,9.082-3.154,9.12-7.22H88.92c0,1.406-.57,2.736-2.242,2.736-1.786,0-2.7-1.1-2.736-4.636h11.7Zm-6.84-1.976H83.942c.152-2.242.836-3.5,2.622-3.5,1.558,0,2.242,1.254,2.242,3.04Zm10.07,12.236h6.84V-36.78c0-2.356,1.254-3.838,4.028-3.838a9.435,9.435,0,0,1,3.686.646v-6.346a7.649,7.649,0,0,0-2.736-.456,5.394,5.394,0,0,0-5.4,4.408L104.8-46.28H98.876Zm14.972,0h3.8v.57c0,1.292-.418,2.014-3.306,2.584l.874,3.268c4.522-.532,5.852-2.356,5.852-6.422v-6.536h-7.22Zm18.962,0h9.956c5.016,0,10.26-1.14,10.26-8.284,0-4.332-2.432-6.46-5.434-7.144v-.076c2.964-.95,4.37-2.964,4.37-6.422,0-4.484-2.926-7.714-9.8-7.714h-9.348Zm7.03-17.936V-50.8h2.014a2.776,2.776,0,0,1,3.116,3.078c0,2.166-.988,3.268-2.964,3.268Zm0,12.5V-39.1h2.09c2.394,0,3.724,1.026,3.724,3.572,0,2.812-1.558,3.572-3.648,3.572Zm34.315-4.826c0-6.764-2.812-9.994-8.93-9.994-6.194,0-9.8,3.838-9.8,10.6,0,6.08,2.736,10.146,9.576,10.146,6.118,0,9.082-3.154,9.12-7.22h-6.688c0,1.406-.57,2.736-2.242,2.736-1.786,0-2.7-1.1-2.736-4.636h11.7Zm-6.84-1.976h-4.864c.152-2.242.836-3.5,2.622-3.5,1.558,0,2.242,1.254,2.242,3.04Zm19.114,12.73a21.677,21.677,0,0,0,4.788-.608v-5.054a15.292,15.292,0,0,1-3,.38c-2.128,0-2.85-.76-2.85-3.306V-41.34H193.5v7.486c0,4.978,2.128,7.828,7.866,7.828a22.1,22.1,0,0,0,4.826-.608v-5.054a15.292,15.292,0,0,1-3,.38c-2.128,0-2.85-.76-2.85-3.306V-41.34h4.826v-4.94h-4.826v-6.878l-6.84,2.736v4.142h-8.132v-6.878l-6.84,2.736v4.142H175.3v4.94h3.23v7.486C178.526-28.875,180.692-26.025,186.43-26.025Zm39.9-10.754c0-6.764-2.812-9.994-8.93-9.994-6.194,0-9.8,3.838-9.8,10.6,0,6.08,2.736,10.146,9.576,10.146,6.118,0,9.082-3.154,9.12-7.22H219.6c0,1.406-.57,2.736-2.242,2.736-1.786,0-2.7-1.1-2.736-4.636h11.7Zm-6.84-1.976h-4.864c.152-2.242.836-3.5,2.622-3.5,1.558,0,2.242,1.254,2.242,3.04Zm10.07,12.236h6.84V-36.78c0-2.356,1.254-3.838,4.028-3.838a9.435,9.435,0,0,1,3.686.646v-6.346a7.649,7.649,0,0,0-2.736-.456,5.394,5.394,0,0,0-5.4,4.408l-.494-3.914h-5.928Zm14.972,0h3.8v.57c0,1.292-.418,2.014-3.306,2.584L245.9-20.1c4.522-.532,5.852-2.356,5.852-6.422v-6.536h-7.22Z" transform="translate(25.176 3504)" fill="url(#linear-gradient)"/>
    <path id="Path_137335" data-name="Path 137335" d="M19.584-20.636H28.01v-13.3h2.915l5.738,13.3h9.2v-.046L38.53-35.256c3.461-1.685,5.283-4.919,5.283-9.883,0-7.287-4.144-11.021-12.388-11.021H19.584Zm8.426-19.72V-49.6h3.006c2.368,0,4.372.865,4.372,4.509,0,3.325-1.731,4.736-4.19,4.736Zm40.9,7.424c0-8.107-3.37-11.978-10.7-11.978-7.424,0-11.75,4.6-11.75,12.707,0,7.287,3.279,12.16,11.477,12.16,7.332,0,10.885-3.78,10.93-8.653H60.846c0,1.685-.683,3.279-2.687,3.279-2.141,0-3.234-1.321-3.279-5.556H68.907ZM60.71-35.3H54.88c.182-2.687,1-4.19,3.142-4.19,1.867,0,2.687,1.5,2.687,3.643Zm11.8,14.665h8.2V-56.16h-8.2Zm19.356.592c3.78,0,5.921-1.731,6.968-3.689h.137l1.047,3.1h5.966V-35.711c0-5.465-2.186-9.2-10.247-9.2-5.055,0-10.475,1.822-10.475,7.378v1.093H93.41v-1a1.957,1.957,0,0,1,2.232-2.232c2.323,0,2.368,1.776,2.368,3.461v1.776H93.774c-6.285,0-9.427,1.776-9.427,7.378C84.347-22.595,86.624-20.044,91.861-20.044Zm3.279-5.146c-1.867,0-2.368-.911-2.368-2.5,0-1.913.774-2.459,2.687-2.459h2.55v2.186A2.675,2.675,0,0,1,95.14-25.191ZM133.9-44.319h-8.061l-4.144,6.74-4.19-6.74h-8.926v.046l8.016,11.887-8.2,11.7v.046h8.471l3.962-6.194,3.871,6.194h9.336v-.046l-8.016-11.7L133.9-44.273Zm22.635,11.386c0-8.107-3.37-11.978-10.7-11.978-7.424,0-11.75,4.6-11.75,12.707,0,7.287,3.279,12.16,11.477,12.16,7.332,0,10.885-3.78,10.93-8.653h-8.016c0,1.685-.683,3.279-2.687,3.279-2.141,0-3.234-1.321-3.279-5.556h14.027Zm-8.2-2.368h-5.83c.182-2.687,1-4.19,3.142-4.19,1.867,0,2.687,1.5,2.687,3.643Zm20.54,15.257a7.01,7.01,0,0,0,6.786-4.144h.137l1.184,3.552h6.331V-56.16h-8.2v14.8h-.091c-.865-2.232-3.051-3.552-5.966-3.552-6.194,0-9.7,4.509-9.7,12.57C159.356-24.6,162.225-20.044,168.875-20.044Zm2.6-5.465c-2.824,0-3.689-2.323-3.689-6.831,0-4.6,1.184-6.923,3.826-6.923,2.6,0,3.871,2.141,3.871,6.74C175.479-27.832,174.249-25.509,171.471-25.509Z" transform="translate(10.416 3546)" fill="url(#linear-gradient)"/>
  </g>
</svg>
