<svg xmlns="http://www.w3.org/2000/svg" xmlns:xlink="http://www.w3.org/1999/xlink" width="748.944" height="68.328" viewBox="0 0 748.944 68.328">
  <defs>
    <linearGradient id="linear-gradient" x1="-0.24" y1="-0.347" x2="1.082" y2="1" gradientUnits="objectBoundingBox">
      <stop offset="0" stop-color="#f8b13c"/>
      <stop offset="0.488" stop-color="#ff615b"/>
      <stop offset="1" stop-color="#fd26b9"/>
    </linearGradient>
  </defs>
  <path id="Path_136749" data-name="Path 136749" d="M4.824,0H38.232V-10.368H18.144V-22.9h16.7v-11.16h-16.7V-45.792H37.872V-56.16H4.824ZM54.648.936c5.976,0,9.36-2.736,11.016-5.832h.216L67.536,0h9.432V-23.832c0-8.64-3.456-14.544-16.2-14.544-7.992,0-16.56,2.88-16.56,11.664v1.728H57.1v-1.584c0-2.088.864-3.528,3.528-3.528,3.672,0,3.744,2.808,3.744,5.472v2.808h-6.7c-9.936,0-14.9,2.808-14.9,11.664C42.768-3.1,46.368.936,54.648.936ZM59.832-7.2c-2.952,0-3.744-1.44-3.744-3.96,0-3.024,1.224-3.888,4.248-3.888h4.032v3.456A4.229,4.229,0,0,1,59.832-7.2ZM99.216.936c12.528,0,17.64-5.544,17.64-12.672,0-7.2-4.32-9.5-10.44-11.016l-5.9-1.3c-3.312-.864-4.824-1.512-4.824-3.816,0-1.512.864-2.736,3.744-2.736,3.456,0,3.816,2.088,3.816,4.392v.648h12.888v-.864c0-4.968-2.52-11.952-16.128-11.952-13.752,0-17.136,6.768-17.136,12.384,0,5.688,2.376,9,9.72,10.728L98.856-13.9c3.168.72,4.32,1.44,4.32,3.456s-1.152,2.952-3.744,2.952c-3.024,0-4.032-1.656-4.032-4.032v-1.224H82.512v1.3C82.512-5.4,84.312.936,99.216.936Zm23.472-44.208h12.744V-56.16H122.688ZM122.616,0h12.96V-37.44h-12.96ZM176.9-19.44c0-12.816-5.328-18.936-16.92-18.936-11.736,0-18.576,7.272-18.576,20.088,0,11.52,5.184,19.224,18.144,19.224,11.592,0,17.208-5.976,17.28-13.68H164.16c0,2.664-1.08,5.184-4.248,5.184-3.384,0-5.112-2.088-5.184-8.784H176.9Zm-12.96-3.744h-9.216c.288-4.248,1.584-6.624,4.968-6.624,2.952,0,4.248,2.376,4.248,5.76ZM183.024,0h12.96V-19.44c0-4.464,2.376-7.272,7.632-7.272a17.877,17.877,0,0,1,6.984,1.224V-37.512a14.492,14.492,0,0,0-5.184-.864c-6.12,0-9.216,4.248-10.224,8.352l-.936-7.416H183.024Zm28.368,0h7.2V1.08c0,2.448-.792,3.816-6.264,4.9l1.656,6.192C222.552,11.16,225.072,7.7,225.072,0V-12.384h-13.68ZM247.32,0h18.864c9.5,0,19.44-2.16,19.44-15.7,0-8.208-4.608-12.24-10.3-13.536v-.144c5.616-1.8,8.28-5.616,8.28-12.168,0-8.5-5.544-14.616-18.576-14.616H247.32Zm13.32-33.984V-46.008h3.816c3.456,0,5.9,1.656,5.9,5.832,0,4.1-1.872,6.192-5.616,6.192Zm0,23.688V-23.832h3.96c4.536,0,7.056,1.944,7.056,6.768,0,5.328-2.952,6.768-6.912,6.768Zm65.016-9.144c0-12.816-5.328-18.936-16.92-18.936C297-38.376,290.16-31.1,290.16-18.288,290.16-6.768,295.344.936,308.3.936c11.592,0,17.208-5.976,17.28-13.68H312.912c0,2.664-1.08,5.184-4.248,5.184-3.384,0-5.112-2.088-5.184-8.784h22.176ZM312.7-23.184H303.48c.288-4.248,1.584-6.624,4.968-6.624,2.952,0,4.248,2.376,4.248,5.76ZM348.912.936a41.072,41.072,0,0,0,9.072-1.152V-9.792a28.973,28.973,0,0,1-5.688.72c-4.032,0-5.4-1.44-5.4-6.264V-28.08H362.3V-13.9c0,9.432,4.032,14.832,14.9,14.832a41.88,41.88,0,0,0,9.144-1.152V-9.792a28.973,28.973,0,0,1-5.688.72c-4.032,0-5.4-1.44-5.4-6.264V-28.08h9.144v-9.36h-9.144V-50.472L362.3-45.288v7.848H346.9V-50.472l-12.96,5.184v7.848h-6.12v9.36h6.12V-13.9C333.936-4.464,338.04.936,348.912.936Zm75.6-20.376c0-12.816-5.328-18.936-16.92-18.936-11.736,0-18.576,7.272-18.576,20.088C389.016-6.768,394.2.936,407.16.936c11.592,0,17.208-5.976,17.28-13.68H411.768c0,2.664-1.08,5.184-4.248,5.184-3.384,0-5.112-2.088-5.184-8.784h22.176Zm-12.96-3.744h-9.216c.288-4.248,1.584-6.624,4.968-6.624,2.952,0,4.248,2.376,4.248,5.76ZM430.632,0h12.96V-19.44c0-4.464,2.376-7.272,7.632-7.272a17.877,17.877,0,0,1,6.984,1.224V-37.512a14.492,14.492,0,0,0-5.184-.864c-6.12,0-9.216,4.248-10.224,8.352l-.936-7.416H430.632ZM459,0h7.2V1.08c0,2.448-.792,3.816-6.264,4.9l1.656,6.192C470.16,11.16,472.68,7.7,472.68,0V-12.384H459Zm35.928,0h13.32V-21.024h4.608L521.928,0h14.544V-.072L524.88-23.112c5.472-2.664,8.352-7.776,8.352-15.624,0-11.52-6.552-17.424-19.584-17.424h-18.72Zm13.32-31.176V-45.792H513c3.744,0,6.912,1.368,6.912,7.128,0,5.256-2.736,7.488-6.624,7.488ZM572.9-19.44c0-12.816-5.328-18.936-16.92-18.936-11.736,0-18.576,7.272-18.576,20.088,0,11.52,5.184,19.224,18.144,19.224,11.592,0,17.208-5.976,17.28-13.68H560.16c0,2.664-1.08,5.184-4.248,5.184-3.384,0-5.112-2.088-5.184-8.784H572.9Zm-12.96-3.744h-9.216c.288-4.248,1.584-6.624,4.968-6.624,2.952,0,4.248,2.376,4.248,5.76ZM578.592,0h12.96V-56.16h-12.96Zm30.6.936c5.976,0,9.36-2.736,11.016-5.832h.216L622.08,0h9.432V-23.832c0-8.64-3.456-14.544-16.2-14.544-7.992,0-16.56,2.88-16.56,11.664v1.728H611.64v-1.584c0-2.088.864-3.528,3.528-3.528,3.672,0,3.744,2.808,3.744,5.472v2.808h-6.7c-9.936,0-14.9,2.808-14.9,11.664C597.312-3.1,600.912.936,609.192.936ZM614.376-7.2c-2.952,0-3.744-1.44-3.744-3.96,0-3.024,1.224-3.888,4.248-3.888h4.032v3.456A4.229,4.229,0,0,1,614.376-7.2Zm61.272-30.24H662.9l-6.552,10.656L649.728-37.44H635.616v.072l12.672,18.792-12.96,18.5V0H648.72l6.264-9.792L661.1,0h14.76V-.072l-12.672-18.5,12.456-18.792Zm35.784,18c0-12.816-5.328-18.936-16.92-18.936-11.736,0-18.576,7.272-18.576,20.088,0,11.52,5.184,19.224,18.144,19.224,11.592,0,17.208-5.976,17.28-13.68H698.688c0,2.664-1.08,5.184-4.248,5.184-3.384,0-5.112-2.088-5.184-8.784h22.176Zm-12.96-3.744h-9.216c.288-4.248,1.584-6.624,4.968-6.624,2.952,0,4.248,2.376,4.248,5.76ZM730.944.936c5.328,0,9.216-2.808,10.728-6.552h.216L743.76,0h10.008V-56.16h-12.96v23.4h-.144c-1.368-3.528-4.824-5.616-9.432-5.616-9.792,0-15.336,7.128-15.336,19.872C715.9-6.264,720.432.936,730.944.936Zm4.1-8.64c-4.464,0-5.832-3.672-5.832-10.8,0-7.272,1.872-10.944,6.048-10.944,4.1,0,6.12,3.384,6.12,10.656C741.384-11.376,739.44-7.7,735.048-7.7Z" transform="translate(-4.824 56.16)" fill="url(#linear-gradient)"/>
</svg>
