<svg xmlns="http://www.w3.org/2000/svg" xmlns:xlink="http://www.w3.org/1999/xlink" width="590.544" height="70.56" viewBox="0 0 590.544 70.56">
  <defs>
    <linearGradient id="linear-gradient" x1="-0.24" y1="-0.347" x2="1.082" y2="1" gradientUnits="objectBoundingBox">
      <stop offset="0" stop-color="#f8b13c"/>
      <stop offset="0.488" stop-color="#ff615b"/>
      <stop offset="1" stop-color="#fd26b9"/>
    </linearGradient>
  </defs>
  <path id="Path_136754" data-name="Path 136754" d="M4.824,0h13.32V-14.976l6.624-8.136L35.5,0H50.688V-.072L33.7-34.632,50.76-56.088v-.072H36.432L18.144-31.968V-56.16H4.824ZM87.192-19.44c0-12.816-5.328-18.936-16.92-18.936C58.536-38.376,51.7-31.1,51.7-18.288,51.7-6.768,56.88.936,69.84.936c11.592,0,17.208-5.976,17.28-13.68H74.448c0,2.664-1.08,5.184-4.248,5.184-3.384,0-5.112-2.088-5.184-8.784H87.192Zm-12.96-3.744H65.016c.288-4.248,1.584-6.624,4.968-6.624,2.952,0,4.248,2.376,4.248,5.76Zm52.92,3.744c0-12.816-5.328-18.936-16.92-18.936-11.736,0-18.576,7.272-18.576,20.088C91.656-6.768,96.84.936,109.8.936c11.592,0,17.208-5.976,17.28-13.68H114.408c0,2.664-1.08,5.184-4.248,5.184-3.384,0-5.112-2.088-5.184-8.784h22.176Zm-12.96-3.744h-9.216c.288-4.248,1.584-6.624,4.968-6.624,2.952,0,4.248,2.376,4.248,5.76ZM133.272,14.4h12.96V-4.68h.216c1.3,3.384,4.824,5.616,9.72,5.616,9.288,0,14.976-7.128,14.976-19.872,0-12.24-4.32-19.44-13.968-19.44-6.192,0-10.152,2.808-11.952,6.984h-.144l-.5-6.048h-11.3Zm18.36-22.392c-3.888,0-5.976-3.384-5.976-10.656,0-7.416,1.944-11.088,6.336-11.088,4.464,0,5.832,3.672,5.832,10.8C157.824-11.664,156.1-7.992,151.632-7.992ZM187.776-37.44v.072L201.024.288l-5.184,14.04V14.4h14.544L214.92-.144,227.3-37.368v-.072H214.848l-6.624,25.92h-.36l-6.48-25.92ZM246.456.936c13.392,0,19.44-8.28,19.44-19.584,0-11.592-5.832-19.728-18.648-19.728-13.392,0-19.368,8.28-19.368,20.232C227.88-7.272,232.992.936,246.456.936Zm.5-8.784c-4.248,0-5.688-3.168-5.688-10.728,0-7.416,1.656-10.656,5.688-10.656,3.744,0,5.616,3.024,5.616,10.656C252.576-11.016,250.7-7.848,246.96-7.848ZM283.176.936c5.832,0,9.648-2.952,10.8-6.552h.216L294.84,0h11.592V-37.44h-12.96v22.32c0,3.888-1.584,6.192-4.824,6.192-3.384,0-4.248-2.088-4.248-6.408v-22.1H271.44v25.56C271.44-3.312,275.76.936,283.176.936Zm66.744,0c14.76,0,20.952-7.056,20.952-22.752V-56.16h-13.32v35.928c0,7.992-2.3,10.3-7.488,10.3s-7.632-2.16-7.632-10.368V-56.16h-13.32v34.992C329.112-5.76,334.872.936,349.92.936ZM379.944,0h13.32V-18.576h4.392c12.96,0,19.8-5.688,19.8-19.224,0-12.1-6.552-18.36-19.728-18.36H379.944Zm13.32-29.016V-45.792h3.888c3.6,0,6.984,1.728,6.984,8.136,0,6.624-2.808,8.64-6.768,8.64ZM423.648,0h18.864c9.5,0,19.44-2.16,19.44-15.7,0-8.208-4.608-12.24-10.3-13.536v-.144c5.616-1.8,8.28-5.616,8.28-12.168,0-8.5-5.544-14.616-18.576-14.616H423.648Zm13.32-33.984V-46.008h3.816c3.456,0,5.9,1.656,5.9,5.832,0,4.1-1.872,6.192-5.616,6.192Zm0,23.688V-23.832h3.96c4.536,0,7.056,1.944,7.056,6.768,0,5.328-2.952,6.768-6.912,6.768ZM469.08,0h33.408V-10.368H482.4V-22.9h16.7v-11.16H482.4V-45.792h19.728V-56.16H469.08Zm71.208,0h14.4L538.776-56.16H521.64L505.656,0h14.256l3.024-13.032h14.4ZM525.6-24.7l4.464-19.8h.144l4.464,19.8ZM566.28,0H579.6V-45h15.768V-56.16H550.44V-45h15.84Z" transform="translate(-4.824 56.16)" fill="url(#linear-gradient)"/>
</svg>
