<svg id="Group_128363" data-name="Group 128363" xmlns="http://www.w3.org/2000/svg" xmlns:xlink="http://www.w3.org/1999/xlink" width="23.937" height="16.382" viewBox="0 0 23.937 16.382">
  <defs>
    <clipPath id="clip-path">
      <rect id="Rectangle_570" data-name="Rectangle 570" width="23.937" height="16.382" transform="translate(0 0)" fill="#262157" stroke="rgba(0,0,0,0)" stroke-width="1"/>
    </clipPath>
  </defs>
  <g id="Group_228" data-name="Group 228" clip-path="url(#clip-path)">
    <path id="Path_1332" data-name="Path 1332" d="M0,14.647H1.407V4.713a1.041,1.041,0,0,1,1.039-1.04q2.058,0,4.116,0h.283v.321q0,4.982,0,9.964c0,.222.038.444.058.672h.534V.972A.862.862,0,0,1,8.073.03,1.216,1.216,0,0,1,8.374,0q3.6,0,7.193,0a.947.947,0,0,1,.946.947q0,6.643,0,13.285c0,.124-.018.247-.028.389h.559c.02-.211.062-.437.062-.664q.006-4.982,0-9.964V3.673h4.539c.07,0,.14,0,.21.01a.819.819,0,0,1,.792.847c.008.709,0,1.419,0,2.128q0,3.72,0,7.438v.535h1.285v1.737l-.014.013H0l0,0ZM11.965,6.331a2.978,2.978,0,1,0-2.97-2.979,2.985,2.985,0,0,0,2.97,2.979m-1.65,8.238h3.526V10.158H10.315Zm-7.562-3.4H3.925V9.981H2.753ZM5.826,9.986H4.644V11.17H5.826Zm15.716,0H20.367v1.193h1.175ZM2.753,6.981H3.921V5.8H2.753Zm3.07-1.169H4.643V6.986h1.18ZM20.366,6.987h1.182V5.8H20.366ZM2.743,9.039H3.922V7.868H2.743ZM5.821,7.862H4.638V9.044H5.821ZM20.362,9.038h1.18V7.857h-1.18Zm-.708-3.232h-1.18V6.987h1.18Zm0,2.058H18.474v1.18h1.181Zm-1.183,3.309h1.177V9.981H18.472Z" fill="#262157" stroke="rgba(0,0,0,0)" stroke-width="1"/>
    <path id="Path_1333" data-name="Path 1333" d="M11.231,2.619V1.492h1.483V2.613h1.124V4.1H12.721V5.227H11.237V4.1H10.114V2.619Z" fill="#262157" stroke="rgba(0,0,0,0)" stroke-width="1"/>
  </g>
</svg>
