<svg id="Group_128366" data-name="Group 128366" xmlns="http://www.w3.org/2000/svg" xmlns:xlink="http://www.w3.org/1999/xlink" width="23.954" height="23.953" viewBox="0 0 23.954 23.953">
  <defs>
    <clipPath id="clip-path">
      <rect id="Rectangle_573" data-name="Rectangle 573" width="23.954" height="23.953" transform="translate(0 0)" fill="#262157" stroke="rgba(0,0,0,0)" stroke-width="1"/>
    </clipPath>
  </defs>
  <g id="Group_234" data-name="Group 234" clip-path="url(#clip-path)">
    <path id="Path_1338" data-name="Path 1338" d="M15.532,0h.562a.448.448,0,0,0,.083.039,1.7,1.7,0,0,1,.238,3.272c-.156.061-.165.15-.164.282q0,2.315,0,4.63c0,.074.009.148.014.238.114-.036.2-.062.289-.092a43.988,43.988,0,0,1,6.836-1.793.429.429,0,0,1,.559.448q.006,2.736,0,5.472a.428.428,0,0,1-.374.463c-.2.05-.395.091-.59.145a13.6,13.6,0,0,0-7.542,5.128,14.855,14.855,0,0,0-2.4,5.207c-.106.413-.213.512-.571.513H.665c-.437,0-.606-.228-.487-.652a17.765,17.765,0,0,1,4.97-8.266,3.258,3.258,0,0,0,.939-3.449A4.934,4.934,0,0,0,4.213,8.948,11.6,11.6,0,0,0,.45,7.073.674.674,0,0,1,0,6.737V3.743a.55.55,0,0,1,.579-.294,42.478,42.478,0,0,1,4.881.485,23.53,23.53,0,0,1,5.341,1.4,7.621,7.621,0,0,1,4.142,3.247.384.384,0,0,0,.443.189V3.378c-.042-.018-.083-.039-.126-.055A1.712,1.712,0,0,1,15.407.051,1.129,1.129,0,0,0,15.532,0M6.722,23.036c.063-.057.232-.142.289-.276.351-.828.679-1.667,1.011-2.5a.422.422,0,0,0-.217-.568.414.414,0,0,0-.551.206A4.88,4.88,0,0,0,7,20.42c-.261.665-.523,1.33-.765,2-.12.332.072.614.485.615M11.207,15.8a1.788,1.788,0,0,0-.318-.353.374.374,0,0,0-.5.113c-.538.614-1.075,1.228-1.6,1.852a.421.421,0,0,0,.039.655c.21.157.437.1.645-.145.5-.584,1.007-1.162,1.506-1.748a3.029,3.029,0,0,0,.229-.374M10.68,9.089a1.305,1.305,0,0,0-.138-.3,7.607,7.607,0,0,0-1.8-1.5.41.41,0,0,0-.555.136.4.4,0,0,0,.091.562A10.787,10.787,0,0,1,9.945,9.363a.5.5,0,0,0,.443.059c.124-.048.2-.221.292-.333m3.865,4.124a.438.438,0,0,0-.687-.411c-.533.352-1.055.72-1.574,1.092a.413.413,0,0,0-.107.613.425.425,0,0,0,.6.073c.521-.356,1.043-.71,1.554-1.081a1,1,0,0,0,.21-.286m1.718-.811a.83.83,0,0,0,.128-.029c.592-.253,1.186-.5,1.775-.764a.411.411,0,0,0,.2-.555.424.424,0,0,0-.528-.223c-.14.046-.277.1-.412.161-.448.2-.9.387-1.341.593a.4.4,0,0,0-.24.5.423.423,0,0,0,.42.318m-9-5.754c-.032-.048-.1-.154-.173-.257a.169.169,0,0,0-.079-.047C6.454,6.12,5.9,5.888,5.345,5.678a.423.423,0,1,0-.309.787c.552.229,1.105.456,1.663.669.283.108.564-.106.561-.486M1.372,4.7A.47.47,0,0,0,.9,5.083a.428.428,0,0,0,.351.477q.847.167,1.7.319a.426.426,0,0,0,.493-.328.4.4,0,0,0-.287-.493c-.591-.132-1.187-.243-1.781-.362M21.809,9.669c-.61.155-1.224.3-1.829.471a.389.389,0,0,0-.222.486.407.407,0,0,0,.44.31q.9-.192,1.794-.423a.394.394,0,0,0,.245-.476.492.492,0,0,0-.428-.368" fill="#262157" stroke="rgba(0,0,0,0)" stroke-width="1"/>
  </g>
</svg>
