<svg xmlns="http://www.w3.org/2000/svg" xmlns:xlink="http://www.w3.org/1999/xlink" width="23.953" height="21.149" viewBox="0 0 23.953 21.149">
  <defs>
    <clipPath id="clip-path">
      <rect id="Rectangle_571" data-name="Rectangle 571" width="23.953" height="21.149" transform="translate(0 0)" fill="#262157" stroke="rgba(0,0,0,0)" stroke-width="1"/>
    </clipPath>
  </defs>
  <g id="Group_128364" data-name="Group 128364" transform="translate(0 0)">
    <g id="Group_230" data-name="Group 230" clip-path="url(#clip-path)">
      <path id="Path_1334" data-name="Path 1334" d="M23.953,5.526V18.064a1.038,1.038,0,0,0-.04.131,3.449,3.449,0,0,1-3.543,2.953H3.577A3.458,3.458,0,0,1,0,17.583Q0,11.758,0,5.935V5.619a7.954,7.954,0,0,0,2.159,4.573,12.245,12.245,0,0,0,6.569,3.562.366.366,0,0,1,.341.32,2.983,2.983,0,0,0,5.81.019.382.382,0,0,1,.35-.34,12.7,12.7,0,0,0,5.442-2.51,8.455,8.455,0,0,0,3.067-4.575c.094-.375.145-.761.215-1.142" fill="#262157" stroke="rgba(0,0,0,0)" stroke-width="1"/>
      <path id="Path_1335" data-name="Path 1335" d="M14.972,12.358c0-.393,0-.774,0-1.155a.721.721,0,0,0-.789-.805q-2.209,0-4.42,0a.716.716,0,0,0-.781.788c0,.375,0,.749-.005,1.123,0,.014-.012.027-.038.081-.5-.149-1.01-.281-1.507-.455A10.155,10.155,0,0,1,3.145,9.2,6.41,6.41,0,0,1,1.408,4.317a.411.411,0,0,1,.026-.073H7.051c0-.48,0-.929,0-1.379a2.728,2.728,0,0,1,.584-1.738A2.712,2.712,0,0,1,9.805.016q2.175-.033,4.351,0A2.812,2.812,0,0,1,16.9,2.709c.018.5,0,1,0,1.523h5.637A6.484,6.484,0,0,1,22.2,6.924a7.693,7.693,0,0,1-2.977,3.657,11.844,11.844,0,0,1-4.071,1.759,1.477,1.477,0,0,1-.177.018m-6.5-8.131H15.5c0-.486.013-.961,0-1.434a1.394,1.394,0,0,0-1.376-1.375q-2.139-.022-4.277,0A1.364,1.364,0,0,0,8.485,2.581a16.391,16.391,0,0,0-.011,1.646" fill="#262157" stroke="rgba(0,0,0,0)" stroke-width="1"/>
      <path id="Path_1336" data-name="Path 1336" d="M10.387,11.811h3.166c.006.073.016.14.015.207a13.344,13.344,0,0,1-.055,1.723,1.532,1.532,0,0,1-1.72,1.236,1.587,1.587,0,0,1-1.4-1.53c-.01-.536,0-1.073,0-1.636" fill="#262157" stroke="rgba(0,0,0,0)" stroke-width="1"/>
    </g>
  </g>
</svg>
