<svg xmlns="http://www.w3.org/2000/svg" xmlns:xlink="http://www.w3.org/1999/xlink" width="24" height="20.481" viewBox="0 0 24 20.481">
  <defs>
    <clipPath id="clip-path">
      <rect id="Rectangle_569" data-name="Rectangle 569" width="24" height="20.481" fill="#fff"/>
    </clipPath>
  </defs>
  <g id="Group_128362" data-name="Group 128362" transform="translate(0 0)">
    <g id="Group_226" data-name="Group 226" transform="translate(0 0)" clip-path="url(#clip-path)">
      <path id="Path_1330" data-name="Path 1330" d="M24,14.957a3.244,3.244,0,0,1-.292.7,3.473,3.473,0,0,1-.706.734.286.286,0,0,0-.126.393c.339,1,.67,2,1,3,.025.074.048.148.081.251l-1.328.443c-.244-.723-.481-1.428-.717-2.133l-.051,0-.718,2.137-1.332-.443.879-2.641c.079-.237.168-.472.231-.713a.251.251,0,0,0-.071-.221,2.1,2.1,0,0,1,.26-3.788.629.629,0,0,0,.062-.038V5.926c-.1.036-.174.065-.251.1Q16.57,7.76,12.22,9.5a.546.546,0,0,1-.446.012Q5.983,7.18.187,4.859c-.05-.02-.1-.044-.187-.084.084-.042.138-.075.2-.1Q5.992,2.351,11.789.033a.584.584,0,0,1,.394,0q5.788,2.31,11.569,4.636c.062.025.122.055.228.1l-1.388.578v.233q0,3.415,0,6.83a.306.306,0,0,0,.21.33,2.013,2.013,0,0,1,1.122,1.338c.025.089.053.177.081.265Z" transform="translate(0 0)" fill="#fff"/>
      <path id="Path_1331" data-name="Path 1331" d="M7.51,11.385l3.463,1.391c.891.357,1.784.711,2.672,1.076a.481.481,0,0,0,.4-.005q2.911-1.175,5.826-2.341c.093-.038.187-.071.272-.1a19.63,19.63,0,0,1-.016,2.179,2.754,2.754,0,0,1-1.443,1.954,7.633,7.633,0,0,1-3.235,1.1,11.014,11.014,0,0,1-5.115-.451,4.839,4.839,0,0,1-2.286-1.492,2.217,2.217,0,0,1-.531-1.327c-.019-.649,0-1.3,0-1.976" transform="translate(-1.857 -2.817)" fill="#fff"/>
    </g>
  </g>
</svg>
