<svg id="Group_128377" data-name="Group 128377" xmlns="http://www.w3.org/2000/svg" xmlns:xlink="http://www.w3.org/1999/xlink" width="81.958" height="83.62" viewBox="0 0 81.958 83.62">
  <defs>
    <clipPath id="clip-path">
      <rect id="Rectangle_70207" data-name="Rectangle 70207" width="81.958" height="83.62" fill="none"/>
    </clipPath>
  </defs>
  <path id="Path_92057" data-name="Path 92057" d="M237.15,0l-22.1,38.2,18.085-6.856-6.072.261L237.15,13.042,247.238,31.6l-6.072-.261L259.252,38.2Z" transform="translate(-195.741 0)" fill="#231f20"/>
  <g id="Group_114040" data-name="Group 114040">
    <g id="Group_114039" data-name="Group 114039" clip-path="url(#clip-path)">
      <path id="Path_92058" data-name="Path 92058" d="M279.8,479.421h.293a.214.214,0,0,1,.149.042.137.137,0,0,1,.048.108l-.024.083-.073.054a.352.352,0,0,1-.131.02H279.8Zm0,.823v-.411h.142l.068.005.057.025.061.061c.024.031.053.072.089.128l.122.193h.154l-.161-.251a.662.662,0,0,0-.1-.124.367.367,0,0,0-.075-.046.323.323,0,0,0,.2-.085.233.233,0,0,0,.064-.166.261.261,0,0,0-.039-.14.207.207,0,0,0-.1-.088.549.549,0,0,0-.189-.025h-.409v.924Zm1-.462a.757.757,0,1,1-.757-.758.758.758,0,0,1,.757.758m.067,0a.824.824,0,1,0-.824.823.825.825,0,0,0,.824-.823m-3.982,3.078.913-2.222.906,2.222Zm2.412,1.563a.811.811,0,0,1,.082.337.29.29,0,0,1-.255.313v.074c.223-.008.405-.011.546-.015l.417,0c.133,0,.252,0,.356,0s.232.007.385.015v-.074a.919.919,0,0,1-.511-.552l-2.452-5.481h-.123l-2.362,5.342a2.518,2.518,0,0,1-.284.539.4.4,0,0,1-.283.151v.074c.136-.008.254-.011.354-.015s.226,0,.379,0c.168,0,.311,0,.424,0s.251.007.406.015v-.074a.255.255,0,0,1-.229-.254,1.307,1.307,0,0,1,.1-.4l.388-.9h2.312Zm-7.592-3.734a2.666,2.666,0,0,1,.273-.041c.075-.007.163-.01.262-.009q1.19.008,1.2.891a.809.809,0,0,1-.3.654,1.3,1.3,0,0,1-.816.244c-.055,0-.1,0-.144-.006l-.147-.022-.044.056,1.447,2.217a1.4,1.4,0,0,0,.348.407.7.7,0,0,0,.414.1c.05,0,.133-.005.249-.014l.263-.015a.527.527,0,0,1,.114-.014v-.064a.52.52,0,0,1-.239-.132,2.244,2.244,0,0,1-.288-.36l-1.2-1.752a1.5,1.5,0,0,0,.836-.48,1.327,1.327,0,0,0,.29-.874,1.231,1.231,0,0,0-.463-1.035,2.171,2.171,0,0,0-1.34-.355H270.57v.064a.372.372,0,0,1,.3.264,2.459,2.459,0,0,1,.079.776v2.83a2.449,2.449,0,0,1-.077.771.393.393,0,0,1-.3.269v.064l.384-.007c.138,0,.262-.008.371-.006s.228,0,.378.006l.377.007v-.064a.4.4,0,0,1-.3-.275,2.385,2.385,0,0,1-.079-.766Zm-4.3-.129a1.713,1.713,0,0,1,1.312.558,2.413,2.413,0,0,1-.015,2.958,1.773,1.773,0,0,1-1.347.568,1.745,1.745,0,0,1-1.327-.555,2.138,2.138,0,0,1-.5-1.462,2.189,2.189,0,0,1,.514-1.5,1.792,1.792,0,0,1,1.368-.566m-.022-.605a2.867,2.867,0,0,0-1.388.331,2.319,2.319,0,0,0-.921.913,2.785,2.785,0,0,0-.334,1.371,2.917,2.917,0,0,0,.335,1.411,2.327,2.327,0,0,0,.929.932,2.894,2.894,0,0,0,1.408.337,2.753,2.753,0,0,0,1.361-.334,2.306,2.306,0,0,0,.9-.925,2.939,2.939,0,0,0,.325-1.4,2.875,2.875,0,0,0-.329-1.387,2.309,2.309,0,0,0-.911-.918,2.812,2.812,0,0,0-1.375-.332m-7.79-.156v4.219a2.451,2.451,0,0,1-.077.771.394.394,0,0,1-.3.269v.064l.391-.007c.125,0,.232-.008.321-.006s.189,0,.327.006l.428.007v-.064a.358.358,0,0,1-.327-.246,2.384,2.384,0,0,1-.086-.795v-2.473l3.442,3.812h.064v-4.168a2.519,2.519,0,0,1,.076-.782.363.363,0,0,1,.293-.258v-.064c-.164,0-.289,0-.376.007h-.663c-.1-.006-.244-.009-.428-.007v.064a.335.335,0,0,1,.339.226,2.386,2.386,0,0,1,.089.814v2.444l-3.443-3.833Zm-3.782,3.342.792-1.924.784,1.924Zm2.088,1.353a.7.7,0,0,1,.072.293.252.252,0,0,1-.221.271v.064c.193-.007.352-.011.473-.012s.241,0,.361,0,.218,0,.307,0,.2,0,.335.012v-.064a.8.8,0,0,1-.443-.478l-2.122-4.746h-.107l-2.046,4.625a2.169,2.169,0,0,1-.245.468.353.353,0,0,1-.246.131v.064c.119-.007.22-.011.307-.012s.2,0,.328,0,.268,0,.368,0,.216,0,.351.012v-.064a.222.222,0,0,1-.2-.221,1.1,1.1,0,0,1,.085-.343l.335-.777h2Zm-9.014-4.66h-.077l-.977,4.39a4.4,4.4,0,0,1-.12.477.576.576,0,0,1-.131.24.489.489,0,0,1-.2.117v.064c.075,0,.143-.009.206-.01l.22,0h.336c.152,0,.264,0,.337,0s.152,0,.24.012v-.064c-.176-.051-.26-.141-.255-.271a2.012,2.012,0,0,1,.036-.285l.541-2.779,1.646,3.555h.078l1.567-3.555.585,2.894c0,.024.008.054.012.092a.686.686,0,0,1,.008.094c0,.123-.08.209-.249.256v.064c.161-.007.3-.011.405-.012s.228,0,.356,0c.113,0,.214,0,.3,0s.194,0,.317.012v-.064a.488.488,0,0,1-.272-.226,2.226,2.226,0,0,1-.183-.579l-1.026-4.419H252.5l-1.789,4.02Zm-5.421,2.984.914-2.222.905,2.222Zm2.411,1.563a.808.808,0,0,1,.083.338.29.29,0,0,1-.256.312v.074c.224-.008.406-.012.547-.014s.279,0,.417,0,.251,0,.354,0,.233.006.386.014v-.074a.917.917,0,0,1-.51-.552L244.446,479h-.122l-2.364,5.342a2.5,2.5,0,0,1-.283.539.408.408,0,0,1-.285.152v.074c.137-.008.254-.012.354-.014s.226,0,.379,0,.309,0,.425,0,.248.006.407.014v-.074a.256.256,0,0,1-.232-.255,1.324,1.324,0,0,1,.1-.4l.388-.9h2.312Z" transform="translate(-219.719 -435.954)" fill="#231f20"/>
      <path id="Path_92059" data-name="Path 92059" d="M3,606.273H7.458L5.3,600.709Zm3.27-8.05,5.488,13.519h-2.2L7.725,607H2.716L.784,611.742H0l5.6-13.519Z" transform="translate(0 -544.511)" fill="#231f20"/>
      <path id="Path_92060" data-name="Path 92060" d="M164.877,600.615v5.756h1.147c1.893,0,2.754-1.319,2.754-3.021a2.492,2.492,0,0,0-2.754-2.735Zm-2.161-.688H166.5c2.773.019,4.475,1.281,4.475,3.518a3.052,3.052,0,0,1-.841,2.142,3.515,3.515,0,0,1-2.008,1.109,3.186,3.186,0,0,1,1.128.784,7.159,7.159,0,0,1,.975,1.128c.248.363.574.822.937,1.415l2.027,3.27h-2.409L169.1,610.54a18.847,18.847,0,0,0-1.97-2.791,2.1,2.1,0,0,0-1.587-.689h-.67v6.234h-2.161Z" transform="translate(-148.106 -546.062)" fill="#231f20"/>
      <path id="Path_92061" data-name="Path 92061" d="M311.6,606.639v5.947h1.7a2.736,2.736,0,0,0,3.06-3c0-1.759-.937-2.945-3.06-2.945Zm0-6.024v5.374h1.358q2.581,0,2.582-2.7c0-1.778-.861-2.677-2.582-2.677Zm-2.142-.688h3.786c2.925,0,4.379,1.3,4.379,3.193a2.958,2.958,0,0,1-2.275,3c2.2.383,3.308,1.492,3.308,3.347a3.61,3.61,0,0,1-1.2,2.639,4.713,4.713,0,0,1-3.423,1.186h-4.57Z" transform="translate(-281.672 -546.062)" fill="#231f20"/>
      <path id="Path_92062" data-name="Path 92062" d="M433.217,606.273h4.456l-2.161-5.564Zm3.27-8.05,5.488,13.519h-2.2L437.94,607h-5.01L431,611.742h-.784l5.6-13.519Z" transform="translate(-391.588 -544.511)" fill="#231f20"/>
      <path id="Path_92063" data-name="Path 92063" d="M592.927,599.927h1.645l8.318,10.25v-10.25h.727V613.39h-.956l-9.007-11.34v11.244h-.727Z" transform="translate(-539.691 -546.063)" fill="#231f20"/>
      <path id="Path_92064" data-name="Path 92064" d="M752.805,598.732a8.5,8.5,0,0,0,0,9.16,4.509,4.509,0,0,0,7.133-.019,8.371,8.371,0,0,0,0-9.14,4.524,4.524,0,0,0-7.133,0m-1.759,9.58a7.206,7.206,0,0,1,.019-10,8.066,8.066,0,0,1,10.651,0,6.659,6.659,0,0,1,2.027,4.991,6.759,6.759,0,0,1-2.008,5.01,7.352,7.352,0,0,1-5.393,1.989,7.215,7.215,0,0,1-5.3-1.989" transform="translate(-681.785 -542.764)" fill="#231f20"/>
      <path id="Path_92065" data-name="Path 92065" d="M168.775,865.684v-.218c.341,0,.516-.073.516-.219V859.7c0-.147-.175-.221-.516-.221v-.219h4.87a4.247,4.247,0,0,1,2.087.433,1.808,1.808,0,0,1,0,2.947,4.213,4.213,0,0,1-2.087.433h-2.781v2.177c0,.146.147.219.443.219v.218Zm5.031-3.738a1.775,1.775,0,0,0,.782-.159.759.759,0,0,0,0-1.248,1.775,1.775,0,0,0-.782-.158h-2.942v1.565Z" transform="translate(-153.621 -782.108)" fill="#831b53"/>
      <path id="Path_92066" data-name="Path 92066" d="M276.8,859.241a6.393,6.393,0,0,1,1.2.105,2.95,2.95,0,0,1,.928.329,1.6,1.6,0,0,1,.595.587,1.739,1.739,0,0,1,.208.886,1.484,1.484,0,0,1-.538,1.234,3.1,3.1,0,0,1-1.454.57l1.84,2.322a.371.371,0,0,0,.227.146,1.24,1.24,0,0,0,.243.026v.223h-2.58v-.217a.552.552,0,0,0,.215-.036c.06-.024.09-.057.09-.1a.259.259,0,0,0-.055-.14c-.037-.054-.093-.124-.167-.215l-1.526-1.907h-1.98v2.177a.177.177,0,0,0,.1.164.651.651,0,0,0,.324.056v.217h-2.4v-.217c.267,0,.4-.074.4-.22v-5.55c0-.146-.129-.22-.4-.22v-.221Zm-.36,2.861a4.2,4.2,0,0,0,.828-.067,1.571,1.571,0,0,0,.526-.188.716.716,0,0,0,.277-.283.8.8,0,0,0,0-.72.734.734,0,0,0-.277-.289,1.623,1.623,0,0,0-.526-.189,4.31,4.31,0,0,0-.828-.067h-2.393v1.8Z" transform="translate(-247.634 -782.093)" fill="#831b53"/>
      <path id="Path_92067" data-name="Path 92067" d="M383.8,865.452c.239,0,.359-.073.359-.219v-5.55c0-.147-.12-.221-.359-.221v-.22h2.3v.22c-.241,0-.361.074-.361.221v5.55c0,.146.12.219.361.219v.218h-2.3Z" transform="translate(-349.339 -782.094)" fill="#831b53"/>
      <path id="Path_92068" data-name="Path 92068" d="M435.851,865.452a.33.33,0,0,0,.193-.055.18.18,0,0,0,.083-.164v-5.575a.158.158,0,0,0-.083-.153.415.415,0,0,0-.193-.043v-.22h2.586v.22a.334.334,0,0,0-.146.038.119.119,0,0,0-.075.114.337.337,0,0,0,.054.159c.037.065.077.133.129.208l1.977,3.178,1.987-3.146c.066-.106.114-.19.146-.251a.361.361,0,0,0,.048-.165c0-.089-.057-.135-.179-.135v-.22h2.56v.22a.42.42,0,0,0-.195.043.158.158,0,0,0-.084.153v5.575a.182.182,0,0,0,.084.164.335.335,0,0,0,.195.055v.218h-2.172v-.218c.248,0,.374-.073.374-.219v-4.059h-.028l-2.78,4.5h-.041l-2.723-4.506h-.025v4.069q0,.219.387.219v.218h-2.078Z" transform="translate(-396.718 -782.094)" fill="#831b53"/>
      <path id="Path_92069" data-name="Path 92069" d="M563.041,859.462c-.2,0-.3.075-.3.221v3.666a1.078,1.078,0,0,0,.561,1.059,4.814,4.814,0,0,0,3.276,0,1.08,1.08,0,0,0,.56-1.059v-3.666c0-.146-.137-.221-.415-.221v-.22h2.214v.22c-.221,0-.332.075-.332.221v3.606a2.66,2.66,0,0,1-.236,1.191,1.812,1.812,0,0,1-.706.753,3.1,3.1,0,0,1-1.169.378,13.283,13.283,0,0,1-3.222,0,3.113,3.113,0,0,1-1.169-.378,1.811,1.811,0,0,1-.7-.753,2.646,2.646,0,0,1-.235-1.191v-3.606c0-.146-.129-.221-.387-.221v-.22h2.268Z" transform="translate(-510.425 -782.095)" fill="#831b53"/>
      <path id="Path_92070" data-name="Path 92070" d="M673.409,862.916l.139.062a.345.345,0,0,0,.054.2,1,1,0,0,0,.379.285,4,4,0,0,0,.645.252,6.644,6.644,0,0,0,.774.177,4.437,4.437,0,0,0,.72.067q.236,0,.607-.031a3.913,3.913,0,0,0,.737-.128,2.23,2.23,0,0,0,.623-.268.518.518,0,0,0,.258-.456.442.442,0,0,0-.236-.414,1.95,1.95,0,0,0-.645-.2,7.8,7.8,0,0,0-.9-.079c-.338-.012-.681-.032-1.032-.056a10.27,10.27,0,0,1-1.032-.123,3.1,3.1,0,0,1-.9-.285,1.723,1.723,0,0,1-.636-.55,1.666,1.666,0,0,1-.043-1.659,1.9,1.9,0,0,1,.618-.649,3.579,3.579,0,0,1,1.05-.456,5.508,5.508,0,0,1,1.508-.176,7.128,7.128,0,0,1,1.273.1q.471.082.931.206c.265.074.485.143.666.209a1.365,1.365,0,0,0,.448.1.424.424,0,0,0,.279-.073l.165.1L678.9,860.6l-.143-.053a.611.611,0,0,0-.109-.281,1.144,1.144,0,0,0-.366-.286,3.209,3.209,0,0,0-.6-.251,5.658,5.658,0,0,0-.748-.178,4.92,4.92,0,0,0-.8-.067,4.686,4.686,0,0,0-.63.044,3.166,3.166,0,0,0-.588.129,1.371,1.371,0,0,0-.435.228.433.433,0,0,0-.174.349.483.483,0,0,0,.243.441,1.922,1.922,0,0,0,.636.219,6.827,6.827,0,0,0,.9.1c.334.017.679.037,1.032.061a9.425,9.425,0,0,1,1.032.129,3.236,3.236,0,0,1,.9.293,1.748,1.748,0,0,1,.637.544,1.505,1.505,0,0,1,.241.892,1.454,1.454,0,0,1-.379,1.04,2.68,2.68,0,0,1-.948.636,4.656,4.656,0,0,1-1.223.311,10.155,10.155,0,0,1-1.224.08,9.037,9.037,0,0,1-1.32-.08,5.475,5.475,0,0,1-.886-.195c-.19-.061-.378-.131-.56-.209a.917.917,0,0,0-.36-.091.235.235,0,0,0-.181.1l-.193-.1Z" transform="translate(-612.259 -781.355)" fill="#831b53"/>
      <rect id="Rectangle_70206" data-name="Rectangle 70206" width="52.517" height="0.648" transform="translate(15.153 71.89)" fill="#231f20"/>
    </g>
  </g>
</svg>
