<svg xmlns="http://www.w3.org/2000/svg" xmlns:xlink="http://www.w3.org/1999/xlink" width="480.312" height="57.096" viewBox="0 0 480.312 57.096">
  <defs>
    <linearGradient id="linear-gradient" x1="-0.24" y1="-0.347" x2="1.082" y2="1" gradientUnits="objectBoundingBox">
      <stop offset="0" stop-color="#f8b13c"/>
      <stop offset="0.488" stop-color="#ff615b"/>
      <stop offset="1" stop-color="#fd26b9"/>
    </linearGradient>
  </defs>
  <path id="Path_136780" data-name="Path 136780" d="M5.4,0H16.272V-19.656h5.76c13.032,0,19.08-6.192,19.08-18.648,0-12.1-6.48-17.856-19.3-17.856H5.4ZM16.272-28.3v-19.3h5.184c5.112,0,8.712,2.16,8.712,9.288,0,7.2-2.808,10.008-8.352,10.008ZM46.872,0H57.456V-20.448c0-4.824,2.808-8.136,8.28-8.136a16.121,16.121,0,0,1,6.408,1.224V-37.44a13.334,13.334,0,0,0-4.968-.792c-6.12,0-9.216,4.1-10.368,7.992L56.016-37.3H46.872ZM77.4-43.92H87.912V-56.16H77.4ZM77.4,0H87.984V-37.3H77.4Zm60.912-38.232a11.219,11.219,0,0,0-10.728,6.7c-1.584-4.464-5.256-6.7-10.512-6.7-5.832,0-9.216,3.168-10.512,6.768l-.576-5.832H96.552V0h10.584V-23.112c0-4.176,1.944-6.912,5.832-6.912,3.6,0,4.9,2.088,4.9,7.056V0h10.584V-23.112c0-4.176,1.944-6.912,5.9-6.912,3.456,0,4.9,2.088,4.9,7.056V0h10.584V-25.416C149.832-33.984,145.656-38.232,138.312-38.232ZM169.416.936c5.832,0,9.576-2.88,10.872-6.408h.216l.5,5.472h9.432V-37.3H179.856v23.04c0,4.176-2.376,6.984-6.264,6.984-3.744,0-5.256-2.088-5.256-7.056V-37.3H157.752V-11.88C157.752-3.312,162.072.936,169.416.936Zm43.2,0c11.016,0,16.344-4.9,16.344-12.24,0-6.912-4.032-9.216-10.08-10.656l-5.9-1.44c-3.6-.936-5.112-1.8-5.112-4.464,0-2.088,1.224-3.672,4.9-3.672,3.96,0,5.04,2.232,5.04,5.688v.864h10.584v-1.08c0-5.76-2.736-12.168-15.192-12.168S197.28-31.968,197.28-26.424c0,5.76,2.88,8.856,9.36,10.44l6.48,1.512c3.456.792,4.68,1.728,4.68,4.248,0,2.736-1.584,3.96-5.112,3.96-3.816,0-5.4-2.088-5.4-5.184V-12.96H196.776v1.584C196.776-5.256,198.792.936,212.616.936ZM262.8,0h10.872V-47.016h16.056V-56.16H246.744v9.144H262.8Zm41.76.936c12.528,0,18.288-8.208,18.288-19.512,0-11.592-5.544-19.656-17.64-19.656-12.672,0-18.216,8.136-18.216,20.016C286.992-7.272,291.672.936,304.56.936Zm.36-7.416c-5.04,0-6.984-3.888-6.984-12.1s2.088-11.952,7.056-11.952c4.536,0,6.912,3.6,6.912,11.952C311.9-10.3,309.528-6.48,304.92-6.48ZM335.376,0h11.952l6.912-25.2h.288L361.3,0h12.24l9.288-37.224-.288-.072h-9.36l-5.544,27.072h-.288L359.928-37.3H349.272l-7.416,27.072h-.288L335.88-37.3H324.864v.072Zm83.16-19.728c0-12.24-4.68-18.5-15.912-18.5-11.3,0-17.424,7.416-17.424,19.944C385.2-6.84,389.88.936,402.264.936c10.8,0,16.056-5.76,16.2-13.464H408.1c-.144,3.672-1.656,6.192-5.472,6.192-4.392,0-6.48-2.88-6.552-10.224h22.464ZM407.88-22.68H396.072c.288-5.328,2.088-8.28,6.336-8.28,3.888,0,5.472,2.664,5.472,7.416ZM425.448,0h10.584V-20.448c0-4.824,2.808-8.136,8.28-8.136a16.121,16.121,0,0,1,6.408,1.224V-37.44a13.334,13.334,0,0,0-4.968-.792c-6.12,0-9.216,4.1-10.368,7.992l-.792-7.056h-9.144Zm43.92.936c11.016,0,16.344-4.9,16.344-12.24,0-6.912-4.032-9.216-10.08-10.656l-5.9-1.44c-3.6-.936-5.112-1.8-5.112-4.464,0-2.088,1.224-3.672,4.9-3.672,3.96,0,5.04,2.232,5.04,5.688v.864h10.584v-1.08c0-5.76-2.736-12.168-15.192-12.168s-15.912,6.264-15.912,11.808c0,5.76,2.88,8.856,9.36,10.44l6.48,1.512c3.456.792,4.68,1.728,4.68,4.248,0,2.736-1.584,3.96-5.112,3.96-3.816,0-5.4-2.088-5.4-5.184V-12.96H453.528v1.584C453.528-5.256,455.544.936,469.368.936Z" transform="translate(-5.4 56.16)" fill="url(#linear-gradient)"/>
</svg>
