<svg xmlns="http://www.w3.org/2000/svg" xmlns:xlink="http://www.w3.org/1999/xlink" width="346.104" height="58.032" viewBox="0 0 346.104 58.032">
  <defs>
    <linearGradient id="linear-gradient" x1="-0.24" y1="-0.347" x2="1.082" y2="1" gradientUnits="objectBoundingBox">
      <stop offset="0" stop-color="#f8b13c"/>
      <stop offset="0.488" stop-color="#ff615b"/>
      <stop offset="1" stop-color="#fd26b9"/>
    </linearGradient>
  </defs>
  <path id="Path_92109" data-name="Path 92109" d="M4.824,0h13.32V-18.576h4.392c12.96,0,19.8-5.688,19.8-19.224,0-12.1-6.552-18.36-19.728-18.36H4.824Zm13.32-29.016V-45.792h3.888c3.6,0,6.984,1.728,6.984,8.136,0,6.624-2.808,8.64-6.768,8.64ZM48.528,0h13.32V-21.024h4.608L75.528,0H90.072V-.072L78.48-23.112c5.472-2.664,8.352-7.776,8.352-15.624,0-11.52-6.552-17.424-19.584-17.424H48.528Zm13.32-31.176V-45.792H66.6c3.744,0,6.912,1.368,6.912,7.128,0,5.256-2.736,7.488-6.624,7.488ZM95.616,0h13.32V-56.16H95.616Zm44.856.936c15.912,0,24.552-9.72,24.552-29.448S155.808-57.1,141.048-57.1c-15.048,0-24.912,9.288-24.912,29.232C116.136-8.424,124.344.936,140.472.936Zm.144-10.728c-6.336,0-10.44-4.824-10.44-18.216,0-13.032,4.032-18.288,10.656-18.288,6.12,0,10.152,4.968,10.152,18.36C150.984-14.616,147.024-9.792,140.616-9.792ZM172.224,0h13.32V-21.024h4.608L199.224,0h14.544V-.072l-11.592-23.04c5.472-2.664,8.352-7.776,8.352-15.624,0-11.52-6.552-17.424-19.584-17.424h-18.72Zm13.32-31.176V-45.792H190.3c3.744,0,6.912,1.368,6.912,7.128,0,5.256-2.736,7.488-6.624,7.488ZM219.312,0h13.32V-56.16h-13.32Zm34.7,0h13.32V-45H283.1V-56.16H238.176V-45h15.84Zm48.168,0H315.5V-19.08l17.712-37.008v-.072H319.68L309.168-31.68h-.144L298.44-56.16H284.256v.072L302.184-19.08Zm35.784-20.16h11.376l1.584-36H336.384ZM336.816,0H350.5V-12.384h-13.68Z" transform="translate(-4.824 57.096)" fill="url(#linear-gradient)"/>
</svg>
